<svg xmlns="http://www.w3.org/2000/svg" fill="none" viewBox="0 0 194 169"><path fill="#283D3B" d="M138.652 37.581q6.837 0 12.642 3.483 5.676 3.612 9.159 9.546 3.354 5.934 3.354 13.029v5.805q0 .645-.516.645h-14.448q-.645 0-.645-.645v-5.805q0-4.257-2.709-7.353-2.709-2.967-6.837-2.967-4.515 0-7.095 3.096-2.58 3.225-2.58 7.224v3.483q0 3.999 2.58 7.224 2.451 3.225 6.321 3.225h5.031q.645 0 .645.645l-.129 14.448q0 .516-.516.516h-5.031q-3.483 0-6.192 2.709t-2.709 7.095v1.806q0 4.128 2.838 6.966 2.709 2.967 6.837 2.967 3.999 0 6.837-2.967 2.709-2.838 2.709-6.966v-6.192q0-.645.516-.645h14.448q.516 0 .516.645v6.837q0 7.095-3.483 12.642-3.612 5.547-9.288 8.772-5.805 3.354-12.255 3.354-6.966 0-12.642-3.483-5.805-3.354-9.159-9.03t-3.354-12.513v-2.064q0-5.676 1.935-9.804 1.806-4.128 5.16-7.869a31.3 31.3 0 0 1-5.289-8.514 23.7 23.7 0 0 1-1.935-9.417v-3.87q0-7.224 3.483-13.158 3.354-5.934 9.159-9.417 5.676-3.483 12.642-3.483m-84.304 93.838q-6.837 0-12.642-3.483-5.676-3.612-9.159-9.546-3.354-5.934-3.354-13.029v-5.805q0-.645.516-.645h14.448q.645 0 .645.645v5.805q0 4.257 2.709 7.353 2.709 2.967 6.837 2.967 4.515 0 7.095-3.096 2.58-3.225 2.58-7.224v-3.483q0-3.999-2.58-7.224-2.451-3.225-6.321-3.225h-5.031q-.645 0-.645-.645l.129-14.448q0-.516.516-.516h5.031q3.483 0 6.192-2.709t2.709-7.095V64.21q0-4.128-2.838-6.966-2.709-2.967-6.837-2.967-3.999 0-6.837 2.967-2.709 2.838-2.709 6.966v6.192q0 .645-.516.645H29.838q-.516 0-.516-.645v-6.837q0-7.095 3.483-12.642 3.612-5.547 9.288-8.772 5.805-3.354 12.255-3.354 6.966 0 12.642 3.483 5.805 3.354 9.159 9.03t3.354 12.513v2.064q0 5.676-1.935 9.804-1.806 4.128-5.16 7.869a31.3 31.3 0 0 1 5.289 8.514 23.7 23.7 0 0 1 1.935 9.417v3.87q0 7.224-3.483 13.158-3.354 5.934-9.159 9.417-5.676 3.483-12.642 3.483M89.62 130q-.645 0-.645-.645l.13-88.623q0-.516.515-.516h14.448q.516 0 .516.516l.129 88.623q0 .645-.516.645zM6.432 164.394H1V152.29h5.432q1.634 0 2.732.339 1.1.323 1.762 1.049.663.726.938 1.872.291 1.146.291 2.776t-.291 2.792q-.275 1.146-.938 1.872t-1.762 1.065-2.732.339m.065-9.005H4.88v5.906h1.617q.808 0 1.148-.177.355-.193.355-.855v-3.841q0-.662-.356-.839-.339-.194-1.147-.194m15.268 1.63v2.808h-3.88v1.468h4.753v3.099h-8.633V152.29h8.536l-.485 3.099h-4.171v1.63zM33.4 152.29v3.099h-2.812v9.005h-3.88v-9.005h-2.813v-3.099zm10.018 8.069 2.101 4.035h-4.268l-1.584-3.599h-.84v3.599h-3.88V152.29h6.11q4.17 0 4.171 4.245 0 2.904-1.81 3.824m-3.703-4.97h-.889v2.421h.89q.71 0 1.018-.146.323-.144.323-.661v-.807q0-.516-.323-.662-.307-.145-1.019-.145m7.07 2.969q0-1.662.275-2.856.29-1.21.953-1.985.68-.774 1.779-1.146 1.1-.37 2.716-.371 1.633 0 2.716.371 1.1.372 1.762 1.146.679.774.954 1.985.29 1.194.29 2.856 0 1.582-.258 2.776-.259 1.178-.921 1.969-.647.79-1.763 1.194-1.099.387-2.78.387t-2.797-.387q-1.1-.404-1.762-1.194-.646-.791-.906-1.969-.258-1.194-.258-2.776m4.17-2.017v5.035h1.617q.81 0 1.148-.177.356-.194.356-.856v-5.035h-1.633q-.776 0-1.132.194-.355.177-.355.839m12.996 8.053h-3.88V152.29h3.88zm11.063-12.104v3.099h-2.813v9.005h-3.88v-9.005H65.51v-3.099zm6.393 11.894.55-3.195q1.778.435 3.216.436.727 0 1.278-.017.566-.031 1.002-.096v-.969l-1.746-.145q-1.18-.113-1.972-.387-.792-.275-1.278-.743a2.9 2.9 0 0 1-.678-1.145q-.195-.678-.195-1.582 0-1.242.26-2.066.258-.838.824-1.339.565-.516 1.455-.726.905-.21 2.198-.21 2.571 0 4.656.484l-.485 3.099q-1.81-.291-2.893-.291-1.084 0-1.843.097v.952l1.39.129q1.277.13 2.134.436.857.29 1.374.775.534.483.744 1.145.225.662.226 1.517 0 1.227-.323 2.066-.324.839-.776 1.275a2.7 2.7 0 0 1-.922.565 6.5 6.5 0 0 1-1.164.29q-.614.097-1.245.113-.614.033-1.115.032-1.261 0-2.425-.129a21 21 0 0 1-2.247-.371m20.796-11.894v3.099h-2.813v9.005h-3.88v-9.005h-2.813v-3.099zm.576 0h4.284l1.067 4.261h.146l1.083-4.261h4.284l-3.492 8.812v3.292h-3.88v-3.292zm20.077 9.005v3.099h-7.76V152.29h3.88v9.005zm9.31-4.276v2.808h-3.88v1.468h4.753v3.099h-8.633V152.29h8.536l-.485 3.099h-4.171v1.63zm14.737 4.454h-2.522v2.921h-3.88V152.29h6.111q4.171 0 4.171 4.471a8.3 8.3 0 0 1-.194 1.839 4 4 0 0 1-.663 1.501q-.452.63-1.196 1.001-.728.37-1.827.371m-1.633-6.084h-.889v2.985h.889q.711 0 1.019-.145.323-.145.323-.678v-1.355q0-.516-.323-.662-.308-.145-1.019-.145m11.042 9.005h-3.88V152.29h3.88zm12.406-3.099v3.099h-10.46v-2.421l4.963-6.471-.049-.113h-4.074l-.355-3.099h9.894v2.421l-4.915 6.471.065.113zm11.915 0v3.099h-10.46v-2.421l4.963-6.471-.048-.113h-4.074l-.356-3.099h9.894v2.421l-4.915 6.471.065.113zm5.271 1.179-.437 1.92h-4.09l3.136-12.104h5.998l3.137 12.104h-4.091l-.452-1.92zm1.713-6.472h-.21l-.792 3.389h1.778z"/><path stroke="#C44536" stroke-width="11" d="M5.5 25.5h183v118H5.5z"/></svg>