<svg xmlns="http://www.w3.org/2000/svg" fill="none" viewBox="0 0 143 108"><path fill="#EDDDD4" d="M4.941 107.787H.937v-8.893h4.004q1.204 0 2.014.25.81.236 1.299.77t.691 1.375q.215.842.215 2.04t-.215 2.051q-.202.841-.691 1.375t-1.299.783-2.014.249m.048-6.616H3.797v4.339H4.99q.596 0 .846-.13.262-.143.262-.629v-2.822q0-.486-.262-.616-.25-.142-.846-.142m11.253 1.197v2.063h-2.86v1.079h3.504v2.277h-6.364v-8.893h6.292l-.357 2.277h-3.075v1.197zm8.577-3.474v2.277h-2.073v6.616h-2.86v-6.616h-2.074v-2.277zm7.384 5.928 1.549 2.965h-3.146l-1.168-2.644h-.62v2.644h-2.86v-8.893h4.505q3.074 0 3.074 3.118 0 2.135-1.334 2.81m-2.73-3.651h-.655v1.778h.656q.525 0 .75-.107.24-.106.239-.486v-.592q0-.38-.238-.487-.227-.106-.751-.106m5.211 2.181q0-1.22.202-2.098.215-.89.703-1.459.501-.57 1.311-.841.81-.273 2.002-.273 1.204 0 2.002.273.81.272 1.3.841.5.57.702 1.459.215.877.215 2.098 0 1.162-.19 2.04-.192.865-.68 1.446-.476.581-1.3.877-.81.285-2.049.285t-2.061-.285q-.81-.296-1.3-.877-.476-.58-.667-1.446-.19-.877-.19-2.04m3.074-1.482v3.699h1.192q.596 0 .846-.13.262-.142.262-.628v-3.7h-1.203q-.573 0-.835.143-.262.13-.262.616m9.58 5.917h-2.86v-8.893h2.86zm8.155-8.893v2.277H53.42v6.616h-2.86v-6.616h-2.073v-2.277zm4.712 8.738.405-2.347q1.31.32 2.371.32.537 0 .942-.012.417-.023.739-.071v-.711l-1.287-.107q-.87-.083-1.454-.285t-.942-.545a2.1 2.1 0 0 1-.5-.842 4.2 4.2 0 0 1-.143-1.162q0-.912.19-1.517.191-.617.608-.984.417-.38 1.073-.534.667-.154 1.62-.154 1.896 0 3.432.356l-.357 2.276q-1.334-.213-2.133-.213t-1.359.071v.699l1.025.095q.942.095 1.573.32.632.213 1.013.569.393.356.548.842.168.486.167 1.115 0 .9-.238 1.517-.24.616-.572.937-.275.26-.68.415-.405.143-.858.213a7 7 0 0 1-.917.083 15.7 15.7 0 0 1-2.61-.071 15 15 0 0 1-1.656-.273m15.329-8.738v2.277h-2.073v6.616h-2.86v-6.616h-2.074v-2.277zm.424 0h3.158l.787 3.13h.107l.799-3.13h3.157l-2.574 6.474v2.419h-2.86v-2.419zm14.8 6.616v2.277h-5.72v-8.893h2.86v6.616zm6.862-3.142v2.063h-2.86v1.079h3.504v2.277h-6.364v-8.893h6.292l-.357 2.277h-3.075v1.197zm10.863 3.273h-1.859v2.146h-2.86v-8.893h4.504q3.075 0 3.075 3.284 0 .724-.143 1.352a2.95 2.95 0 0 1-.489 1.103 2.36 2.36 0 0 1-.882.735q-.536.273-1.346.273m-1.204-4.47h-.655v2.193h.655q.525 0 .751-.107.238-.106.238-.498v-.995q0-.38-.238-.487-.226-.106-.751-.106m8.14 6.616h-2.86v-8.893h2.86zm9.144-2.277v2.277h-7.71v-1.779l3.658-4.754-.036-.083h-3.003l-.262-2.277h7.293v1.779l-3.622 4.754.047.083zm8.783 0v2.277h-7.71v-1.779l3.658-4.754-.036-.083h-3.003l-.262-2.277h7.293v1.779l-3.623 4.754.048.083zm3.885.866-.322 1.411h-3.015l2.312-8.893h4.421l2.312 8.893h-3.015l-.334-1.411zm1.263-4.755h-.155l-.584 2.49h1.311z"/><path fill="#C44536" d="M143 0v94.852H0V0z"/><path fill="#283D3B" d="M135.417 8.623v78.684H7.584V8.623z"/><path fill="#EDDDD4" d="M41.09 82.983q-4.98 0-9.264-2.64-4.236-2.594-6.796-6.947-2.514-4.4-2.514-9.587v-4.261q0-.51.373-.51h10.706q.465 0 .466.51v4.26q0 3.104 2.001 5.373 2.002 2.223 5.028 2.223 3.35 0 5.26-2.315 1.908-2.362 1.908-5.28v-2.547q0-2.965-1.862-5.327-1.861-2.361-4.701-2.362H37.97q-.465 0-.466-.51l.093-10.605q0-.37.373-.37h3.724q2.56 0 4.562-1.992 2.001-1.992 2.001-5.234v-1.296q0-3.057-2.048-5.188t-5.12-2.13q-2.933 0-4.981 2.13t-2.048 5.188v4.538q0 .465-.373.464H22.982q-.372 0-.372-.464v-5.048q0-5.187 2.653-9.263a19.35 19.35 0 0 1 6.843-6.484q4.236-2.454 8.984-2.454 5.167 0 9.403 2.5 4.236 2.548 6.703 6.716 2.514 4.169 2.514 9.17v1.529q0 4.168-1.397 7.225-1.397 3.01-3.864 5.79a23.3 23.3 0 0 1 3.91 6.205q1.444 3.381 1.444 6.947v2.872q0 5.28-2.514 9.68-2.56 4.353-6.796 6.947-4.237 2.547-9.403 2.547m35.914-1.065h-10.8q-.465 0-.465-.463l.093-65.165q0-.37.372-.37h10.707q.372 0 .372.37l.093 65.165q0 .463-.372.463m25.935-66.798q5.04 0 9.319 2.56 4.184 2.654 6.751 7.013 2.472 4.36 2.472 9.572v4.265q0 .474-.38.474h-10.65q-.475 0-.475-.474v-4.265q0-3.127-1.997-5.402-1.997-2.18-5.04-2.18-3.328 0-5.23 2.275-1.9 2.37-1.901 5.307v2.56q0 2.937 1.901 5.307 1.807 2.37 4.66 2.37h3.708q.476 0 .476.473l-.095 10.615q0 .38-.381.379h-3.708q-2.568 0-4.564 1.99-1.997 1.99-1.997 5.213v1.327q0 3.033 2.092 5.118 1.996 2.18 5.039 2.18 2.948 0 5.04-2.18 1.997-2.085 1.997-5.118v-4.55q0-.473.38-.473h10.65q.38 0 .38.474v5.023q0 5.212-2.567 9.288-2.663 4.075-6.846 6.444-4.28 2.465-9.034 2.465-5.134 0-9.318-2.56-4.28-2.463-6.751-6.634-2.473-4.17-2.473-9.193v-1.516q0-4.17 1.427-7.203 1.33-3.034 3.803-5.782a23 23 0 0 1-3.898-6.255 17.3 17.3 0 0 1-1.427-6.918v-2.844q0-5.307 2.567-9.667 2.474-4.359 6.752-6.918 4.183-2.56 9.318-2.56"/></svg>